# xmcd CD database file
# Copyright (C) 1993-1998 Ti Kan
#
# Track frame offsets:
#	150
#	14760
#	28262
#	45217
#	55897
#	68702
#	82460
#	99240
#	110740
#	123270
#
# Disc length: 1814 seconds
#
# Revision: 1
# Processed by: cddbd v1.4b41PL1 Copyright (c) Steve Scherf et al.
# Submitted via: CDValet v3.31 - Copyright (c) 1997 Greg Leichner
#
DISCID=8607140a
DTITLE=Glen Cambell - Somebody Like That
DYEAR=1900
DGENRE=
TTITLE0=Somebody Like That
TTITLE1=Those Words
TTITLE2=I Will Be There
TTITLE3=Love's Old Song
TTITLE4=The One Who Hung The Moon
TTITLE5=Swimming Up Stream
TTITLE6=The Best Of Texas
TTITLE7=Ain't it Just Like Love
TTITLE8=If I'd Only Knew it was Like That
TTITLE9=Rising Above it all
EXTD=41
EXTT0=
EXTT1=
EXTT2=
EXTT3=
EXTT4=
EXTT5=
EXTT6=
EXTT7=
EXTT8=
EXTT9=
PLAYORDER=
